<?xml version="1.0" encoding="UTF-8"?>
<svg width="32px" height="32px" viewBox="0 0 32 32" version="1.1" xmlns="http://www.w3.org/2000/svg" xmlns:xlink="http://www.w3.org/1999/xlink">
    <!-- Generator: Sketch 43.2 (39069) - http://www.bohemiancoding.com/sketch -->
    <title>icon-twitter</title>
    <desc>Created with Sketch.</desc>
    <defs></defs>
    <g id="Page-1" stroke="none" stroke-width="1" fill="none" fill-rule="evenodd">
        <path d="M16,32 C7.163444,32 0,24.836556 0,16 C0,7.163444 7.163444,0 16,0 C24.836556,0 32,7.163444 32,16 C32,24.836556 24.836556,32 16,32 Z M28,10.1261876 C27.1910172,10.4872375 26.3209867,10.7308688 25.4075484,10.8401664 C26.3397431,10.2793209 27.0551671,9.39071731 27.3922916,8.33125777 C26.5200728,8.8511391 25.5545185,9.22861054 24.5261301,9.43213014 C23.7029907,8.55079513 22.5298205,8 21.2317414,8 C18.7391009,8 16.7181846,10.0304401 16.7181846,12.5347722 C16.7181846,12.8901239 16.7580644,13.2360534 16.835055,13.5679393 C13.0838132,13.3790914 9.75776189,11.5738869 7.53164133,8.83009618 C7.14324921,9.49961107 6.92062822,10.2784684 6.92062822,11.1098657 C6.92062822,12.6830597 7.71741933,14.0709504 8.9285043,14.8844007 C8.18883099,14.8605311 7.49256543,14.6567871 6.88418715,14.3169597 C6.88378523,14.3358041 6.88378523,14.3548728 6.88378523,14.3743902 C6.88378523,16.5711098 8.43963129,18.403908 10.5046252,18.820818 C10.1258345,18.924238 9.72703707,18.9798738 9.31533338,18.9798738 C9.02420676,18.9798738 8.74160985,18.9516072 8.46597961,18.8983942 C9.04059631,20.6998747 10.7074179,22.0110866 12.6821576,22.0476537 C11.1374315,23.2640154 9.19145161,23.9889418 7.0765299,23.9889418 C6.71238716,23.9889418 6.35324614,23.9672259 6,23.9256336 C7.99782799,25.2124823 10.3700701,25.963073 12.9189353,25.963073 C21.2212467,25.963073 25.7607946,19.0530529 25.7607946,13.0605312 C25.7607946,12.8642353 25.7568647,12.6681637 25.7481563,12.4738419 C26.6297533,11.8345678 27.3953283,11.0358341 28,10.1261876 Z" id="Twitter" fill="#000000"></path>
    </g>
</svg>