<?xml version="1.0" encoding="UTF-8"?>
<svg width="32px" height="32px" viewBox="0 0 32 32" version="1.1" xmlns="http://www.w3.org/2000/svg" xmlns:xlink="http://www.w3.org/1999/xlink">
    <!-- Generator: Sketch 43.2 (39069) - http://www.bohemiancoding.com/sketch -->
    <title>icon-github</title>
    <desc>Created with Sketch.</desc>
    <defs></defs>
    <g id="Page-1" stroke="none" stroke-width="1" fill="none" fill-rule="evenodd">
        <path d="M16.150149,0.101289796 C7.56053333,0.101289796 0.59507451,7.34942041 0.59507451,16.2912653 C0.59507451,23.4443755 5.05204706,29.5130122 11.2326275,31.6538776 C12.0099137,31.8036245 12.2954039,31.3025306 12.2954039,30.8749714 C12.2954039,30.4890776 12.2810353,29.2135184 12.2742588,27.860702 C7.9468549,28.8401633 7.03372549,25.950498 7.03372549,25.950498 C6.32614902,24.0792816 5.30660392,23.5815837 5.30660392,23.5815837 C3.89515294,22.5767184 5.41295686,22.5974204 5.41295686,22.5974204 C6.97480784,22.7115755 7.79739608,24.2659918 7.79739608,24.2659918 C9.1846902,26.740898 11.436298,26.0254041 12.3240157,25.6116898 C12.4636235,24.5654204 12.8666353,23.8509714 13.3116235,23.4467265 C9.85656471,23.0375184 6.22443922,21.6491102 6.22443922,15.4456163 C6.22443922,13.6781061 6.83218824,12.2337959 7.82732549,11.1000163 C7.66581961,10.6921143 7.13330196,9.04555102 7.97803922,6.81534694 C7.97803922,6.81534694 9.28432941,6.38047347 12.2566275,8.47510204 C13.4975373,8.1163102 14.8282353,7.93645714 16.1500863,7.93012245 C17.472,7.93645714 18.803702,8.1163102 20.0468706,8.47510204 C23.0159059,6.38040816 24.3201882,6.81534694 24.3201882,6.81534694 C25.1668706,9.04548571 24.6343529,10.692049 24.4729098,11.1000163 C25.4703059,12.2337959 26.0737255,13.6781061 26.0737255,15.4456163 C26.0737255,21.6640653 22.4348235,23.0330776 18.9709804,23.4339265 C19.5289098,23.9363918 20.0259765,24.9216 20.0259765,26.432 C20.0259765,28.5982694 20.0080941,30.3416816 20.0080941,30.8750367 C20.0080941,31.3059918 20.2880627,31.8108082 21.0763922,31.6518531 C27.2537098,29.5086367 31.705098,23.4420898 31.705098,16.2913306 C31.7052235,7.34942041 24.7408314,0.101289796 16.150149,0.101289796 Z" id="Github" fill="#000000"></path>
    </g>
</svg>