<?xml version="1.0" encoding="UTF-8"?>
<svg width="32px" height="32px" viewBox="0 0 32 32" version="1.1" xmlns="http://www.w3.org/2000/svg" xmlns:xlink="http://www.w3.org/1999/xlink">
    <!-- Generator: Sketch 43.2 (39069) - http://www.bohemiancoding.com/sketch -->
    <title>icon-email</title>
    <desc>Created with Sketch.</desc>
    <defs></defs>
    <g id="Page-1" stroke="none" stroke-width="1" fill="none" fill-rule="evenodd">
        <path d="M26.9999505,9.98265144 C26.9905564,8.33829189 25.6464981,7 24,7 L8,7 C6.35350185,7 5.00944363,8.33829189 5.00004955,9.98265144 C4.99988728,9.99252169 4.99987096,10.0023889 5,10.0122497 L5,22 C5,23.6522847 6.34771525,25 8,25 L24,25 C25.6522847,25 27,23.6522847 27,22 L27,10.0122497 C27.000129,10.0023889 27.0001127,9.99252169 26.9999505,9.98265144 Z M24.8934226,9.5539486 L16,15.7793444 L7.10657738,9.5539486 C7.27195754,9.22692322 7.61203877,9 8,9 L24,9 C24.3879612,9 24.7280425,9.22692322 24.8934226,9.5539486 Z M25,11.9206556 L25,22 C25,22.5477153 24.5477153,23 24,23 L8,23 C7.45228475,23 7,22.5477153 7,22 L7,11.9206556 L15.4265377,17.8192319 C15.7708578,18.060256 16.2291422,18.060256 16.5734623,17.8192319 L25,11.9206556 Z M16,32 C7.163444,32 0,24.836556 0,16 C0,7.163444 7.163444,0 16,0 C24.836556,0 32,7.163444 32,16 C32,24.836556 24.836556,32 16,32 Z" id="Email" fill="#000000"></path>
    </g>
</svg>