<svg xmlns="http://www.w3.org/2000/svg" width="32" height="32" viewBox="0 0 32 32">
  <g fill="none" fill-rule="evenodd" transform="translate(-64 -96)">
    <circle cx="80" cy="112" r="14" fill="#000000"/>
    <path fill="#FFFFFF" fill-rule="nonzero" d="M87.377505,106.073708 C87.2610224,106.026187 87.1335694,106 87,106 L73,106 C72.8445572,106 72.697398,106.035466 72.5661731,106.098748 L79.998179,112.805343 L87.377505,106.073708 Z M87.9912828,106.867375 L80.001821,114.155594 L72.0019781,106.936587 C72.0006659,106.957556 72,106.9787 72,107 L72,117 C72,117.552285 72.4477153,118 73,118 L87,118 C87.5522847,118 88,117.552285 88,117 L88,107 C88,106.955037 87.9970325,106.910767 87.9912828,106.867375 Z M73,105 L87,105 C88.1045695,105 89,105.895431 89,107 L89,117 C89,118.104569 88.1045695,119 87,119 L73,119 C71.8954305,119 71,118.104569 71,117 L71,107 C71,105.895431 71.8954305,105 73,105 Z"/>
  </g>
</svg>
