<svg xmlns="http://www.w3.org/2000/svg" width="32" height="32" viewBox="0 0 32 32">
  <path fill="#000000" fill-rule="evenodd" d="M16.0000565,2 C8.2691321,2 2,8.42635478 2,16.3543945 C2,22.6965021 6.01141553,28.0770912 11.5741323,29.9752303 C12.2737144,30.1079993 12.5306646,29.6637182 12.5306646,29.2846347 C12.5306646,28.9424926 12.5177324,27.8115532 12.5116333,26.612116 C8.61683366,27.4805283 7.79498846,24.9184863 7.79498846,24.9184863 C7.15814738,23.2594241 6.24052471,22.8181539 6.24052471,22.8181539 C4.97017442,21.9272179 6.3362457,21.9455728 6.3362457,21.9455728 C7.74196073,22.0467852 8.48231602,23.4249655 8.48231602,23.4249655 C9.73092438,25.6192727 11.7574423,24.9848998 12.5564161,24.6180914 C12.6820675,23.6904456 13.0447908,23.0569991 13.4452942,22.6985866 C10.3356326,22.3357735 7.06660535,21.1047797 7.06660535,15.6046232 C7.06660535,14.0375091 7.61359859,12.7569514 8.50925343,11.751717 C8.36389306,11.390062 7.88461042,9.93018213 8.64490053,7.95283329 C8.64490053,7.95283329 9.8206028,7.56726474 12.4957646,9.4244093 C13.6126224,9.10629643 14.8102925,8.94683468 16,8.9412182 C17.1897639,8.94683468 18.3883376,9.10629643 19.5072285,9.4244093 C22.1794537,7.56720684 23.3533488,7.95283329 23.3533488,7.95283329 C24.1153896,9.93012423 23.6361069,11.3900041 23.490803,11.751717 C24.3884909,12.7569514 24.9315875,14.0375091 24.9315875,15.6046232 C24.9315875,21.1180392 21.6564613,22.3318361 18.5388935,22.6872378 C19.0410475,23.1327348 19.4884231,24.0062424 19.4884231,25.3453968 C19.4884231,27.2660597 19.4723284,28.811808 19.4723284,29.2846926 C19.4723284,29.666787 19.724309,30.1143685 20.4338303,29.9734353 C25.9936105,28.0732118 30,22.6944755 30,16.3544524 C30.0001129,8.42635478 23.7319409,2 16.0000565,2 Z"/>
</svg>
