<svg xmlns="http://www.w3.org/2000/svg" xmlns:xlink="http://www.w3.org/1999/xlink" width="32" height="32" viewBox="0 0 32 32">
  <defs>
    <circle id="a" cx="14" cy="14" r="14"/>
  </defs>
  <g fill="none" fill-rule="evenodd" transform="translate(2 2)">
    <mask id="b" fill="white">
      <use xlink:href="#a"/>
    </mask>
    <path fill="#000000" d="M14,28 C21.7319865,28 28,21.7319865 28,14 C28,6.2680135 21.7319865,0 14,0 C6.2680135,0 0,6.2680135 0,14 C0,21.7319865 6.2680135,28 14,28 Z M7.30718954,9 C6.58524869,9 6,9.69955508 6,10.5625 L6,29.5625 C6,30.4254449 22,31.4254449 22,30.5625 L22,10.5625 C22,9.69955508 21.4147513,9 20.6928105,9 L7.30718954,9 Z M7.10179641,8 L20.8982036,8 C22.0589937,8 23,9.06956719 23,10.3889452 L23,29.0104665 C23,30.3298445 5,30.3298445 5,29.0104665 L5,10.3889452 C5,9.06956719 5.9410063,8 7.10179641,8 Z M9,12 L16,12 L16,14 L9,14 L9,12 Z M9,18 L19,18 L19,19 L9,19 L9,18 Z M9,21 L16,21 L16,22 L9,22 L9,21 Z" mask="url(#b)"/>
  </g>
</svg>
