<?xml version="1.0" encoding="UTF-8"?>
<svg width="340px" height="109px" viewBox="0 0 340 109" version="1.1" xmlns="http://www.w3.org/2000/svg" xmlns:xlink="http://www.w3.org/1999/xlink">
    <!-- Generator: Sketch 52.6 (67491) - http://www.bohemiancoding.com/sketch -->
    <title>Group 9</title>
    <desc>Created with Sketch.</desc>
    <defs>
        <linearGradient x1="36.4266685%" y1="54.6170958%" x2="3.04527329%" y2="4.4903168%" id="linearGradient-1">
            <stop stop-color="#F15C26" offset="0%"></stop>
            <stop stop-color="#F58223" stop-opacity="0.6965" offset="25.51%"></stop>
            <stop stop-color="#FDB518" stop-opacity="0.2212" offset="65.46%"></stop>
            <stop stop-color="#FFCA0B" stop-opacity="0" offset="84.05%"></stop>
        </linearGradient>
        <linearGradient x1="37.1024605%" y1="91.2700635%" x2="143.669608%" y2="-43.1622851%" id="linearGradient-2">
            <stop stop-color="#FCB717" offset="19.5%"></stop>
            <stop stop-color="#FEC212" stop-opacity="0.7652" offset="34.66%"></stop>
            <stop stop-color="#FFC80D" stop-opacity="0.4732" offset="53.51%"></stop>
            <stop stop-color="#FFCA0B" stop-opacity="0" offset="84.05%"></stop>
        </linearGradient>
        <linearGradient x1="51.7612199%" y1="72.2627831%" x2="116.762324%" y2="-28.8863109%" id="linearGradient-3">
            <stop stop-color="#F04E24" offset="0%"></stop>
            <stop stop-color="#F15724" stop-opacity="0.9887" offset="1.13%"></stop>
            <stop stop-color="#F47523" stop-opacity="0.9371" offset="6.29%"></stop>
            <stop stop-color="#F68C21" stop-opacity="0.8791" offset="12.09%"></stop>
            <stop stop-color="#F99F1E" stop-opacity="0.815" offset="18.5%"></stop>
            <stop stop-color="#FBAE1A" stop-opacity="0.7426" offset="25.74%"></stop>
            <stop stop-color="#FEBB15" stop-opacity="0.6581" offset="34.19%"></stop>
            <stop stop-color="#FFC410" stop-opacity="0.5536" offset="44.64%"></stop>
            <stop stop-color="#FFC80C" stop-opacity="0.407" offset="59.3%"></stop>
            <stop stop-color="#FFCA0B" stop-opacity="0" offset="100%"></stop>
        </linearGradient>
        <linearGradient x1="49.128203%" y1="73.5825513%" x2="-15.3977857%" y2="-31.3214599%" id="linearGradient-4">
            <stop stop-color="#F89F1F" offset="0%"></stop>
            <stop stop-color="#FBAE1B" stop-opacity="0.9122" offset="8.78%"></stop>
            <stop stop-color="#FDBB16" stop-opacity="0.8091" offset="19.09%"></stop>
            <stop stop-color="#FFC311" stop-opacity="0.6806" offset="31.94%"></stop>
            <stop stop-color="#FFC80D" stop-opacity="0.5004" offset="49.96%"></stop>
            <stop stop-color="#FFCA0B" stop-opacity="0" offset="100%"></stop>
        </linearGradient>
        <linearGradient x1="36.4264973%" y1="54.6162207%" x2="3.04576406%" y2="4.48995118%" id="linearGradient-5">
            <stop stop-color="#F15C26" offset="0%"></stop>
            <stop stop-color="#F58223" stop-opacity="0.6965" offset="25.51%"></stop>
            <stop stop-color="#FDB518" stop-opacity="0.2212" offset="65.46%"></stop>
            <stop stop-color="#FFCA0B" stop-opacity="0" offset="84.05%"></stop>
        </linearGradient>
        <linearGradient x1="37.1015792%" y1="91.2693247%" x2="143.665138%" y2="-43.1645707%" id="linearGradient-6">
            <stop stop-color="#FCB717" offset="19.5%"></stop>
            <stop stop-color="#FEC212" stop-opacity="0.7652" offset="34.66%"></stop>
            <stop stop-color="#FFC80D" stop-opacity="0.4732" offset="53.51%"></stop>
            <stop stop-color="#FFCA0B" stop-opacity="0" offset="84.05%"></stop>
        </linearGradient>
    </defs>
    <g id="Page-Designs" stroke="none" stroke-width="1" fill="none" fill-rule="evenodd">
        <g id="Vox-Media" transform="translate(-767.000000, -598.000000)">
            <g id="Group-9" transform="translate(736.000000, 603.000000)">
                <g id="Group-7" transform="translate(182.000000, 0.000000)" fill="#D8D8D8" fill-rule="nonzero" stroke="#FFFFFF" stroke-width="5">
                    <path d="M25.5,13.5 L41.5,13.5 L41.5,25.5 L25.5,25.5 L25.5,40.5 L13.5,40.5 L13.5,25.5 L-2.5,25.5 L-2.5,13.5 L13.5,13.5 L13.5,-2.5 L25.5,-2.5 L25.5,13.5 Z" id="Combined-Shape"></path>
                </g>
                <g id="SVG-Layer" transform="translate(0.000000, 39.000000)"></g>
                <g id="Vox_Media_logo" transform="translate(31.000000, 52.000000)">
                    <g id="g3283" transform="translate(0.000000, 21.500000)" fill="#4E4E50">
                        <path d="M8.69754825,0.583846154 L14.990511,19.1858242 L19.0788618,6.85186813 C19.8003355,4.70868132 20.4417544,2.60571429 21.0027917,0.826813187 L29.4601754,0.826813187 L21.0429825,21.6527473 C19.6800899,25.05 18.8785614,27.030989 18.1168969,29.3769231 L11.7840702,29.7408791 L3.40706798,9.19813187 C2.40458553,6.64945055 1.12240132,3.4143956 0,0.947472527 L8.69754825,0.583846154 Z" id="path3285"></path>
                        <path d="M37.7950263,15.7889011 C37.7950263,6.7710989 43.7269254,0.138791209 52.5852368,0.138791209 C61.0426206,0.138791209 66.6137829,6.40714286 66.6137829,14.3330769 C66.6137829,23.3508791 60.6420197,29.9831868 51.8238991,29.9831868 C43.3665154,29.9828571 37.7950263,23.6742857 37.7950263,15.7889011 Z M58.797818,15.1823077 C58.797818,9.76318681 56.0720329,6.44736264 52.264364,6.44736264 C48.2162039,6.44736264 45.5708004,10.289011 45.5708004,14.9396703 C45.5708004,20.3587912 48.3367763,23.6746154 52.1441184,23.6746154 C56.1926053,23.6742857 58.797818,19.8326374 58.797818,15.1823077 Z" id="path3287" fill-rule="nonzero"></path>
                        <path d="M75.0685526,29.2549451 L84.8084474,14.697033 L81.0007785,9.07582418 L75.5093443,0.947472527 L84.3673289,0.624395604 L90.1391184,9.7232967 L92.1029123,6.32604396 C93.105068,4.66846154 94.5078246,2.40362637 95.5099803,0.826483516 L104.247719,0.826483516 L94.948943,14.8994505 L98.395875,19.9945055 C99.9992588,22.4208791 102.724717,26.6264835 104.488537,29.2552747 L95.5504978,29.5786813 L89.6185987,19.9137363 L87.7747237,22.9467033 C86.8928136,24.4427473 84.9688838,27.5564835 83.887,29.2552747 L75.0685526,29.2552747 L75.0685526,29.2549451 Z" id="path3289"></path>
                        <path d="M131.980998,19.5092308 L133.183454,10.5721978 C133.544191,7.98395604 134.185283,2.8889011 134.346046,0.745384615 L140.438382,0.462527473 C141.159855,2.03967033 142.162011,4.38494505 143.00373,6.20505495 L148.214482,17.8918681 L153.304662,6.00296703 C154.066,4.26395604 154.987774,2.12076923 155.629193,0.543296703 L161.561092,0.543296703 C161.841774,2.8889011 162.482866,7.94373626 162.84393,10.5721978 L164.086577,19.5092308 C164.447314,22.138022 165.248842,27.1523077 165.689634,29.2549451 L157.793614,29.5783516 C157.713559,28.4053846 157.352496,25.0087912 157.112331,23.4313187 L155.949739,14.4135165 C153.985618,19.3875824 150.498496,28.1630769 149.977649,29.5378022 L145.809243,29.7398901 L139.757099,14.7774725 L138.795134,23.4313187 C138.594833,25.0084615 138.314151,28.1221978 138.274287,29.2546154 L130.377941,29.2546154 C130.858596,27.151978 131.620261,22.1376923 131.980998,19.5092308 Z" id="path3291"></path>
                        <path d="M197.150526,29.4164835 C194.505123,29.2549451 191.218627,29.2143956 188.092241,29.2143956 C184.564928,29.2143956 180.79745,29.2549451 177.791309,29.4164835 C177.99161,27.4753846 178.071664,22.1376923 178.071664,19.5089011 L178.071664,10.5718681 C178.071664,7.98362637 177.99161,2.52461538 177.791309,0.583516484 C180.717395,0.704835165 183.883971,0.785604396 187.531204,0.785604396 C190.818026,0.785604396 193.904221,0.704835165 196.62968,0.583516484 C196.46957,2.60538462 196.309461,4.54648352 196.309461,7.01340659 C194.264958,6.97285714 192.220783,6.93263736 189.776007,6.93263736 C188.57355,6.93263736 187.250849,6.93263736 186.088583,6.97285714 C186.008529,7.53923077 186.008529,8.38846154 186.008529,8.79296703 L186.008529,11.9067033 L194.746268,11.8661538 C194.666213,13.5646154 194.626022,15.4249451 194.626022,17.5275824 L186.008202,17.5275824 L186.008202,21.1671429 C186.008202,21.6121978 186.008202,22.4614286 186.088257,23.0274725 C187.250849,23.0274725 188.573224,23.068022 189.77568,23.068022 C192.621711,23.068022 195.026296,23.0274725 197.431535,22.9467033 C197.230908,24.9682418 197.150526,26.9498901 197.150526,29.4164835 Z" id="path3293"></path>
                        <path d="M219.955042,29.2549451 L209.413618,29.2549451 C209.613919,27.3138462 209.693974,22.1376923 209.693974,19.5092308 L209.693974,10.5721978 C209.693974,7.98395604 209.613919,2.84835165 209.413618,0.907582418 C210.856566,0.907582418 214.423743,0.624725275 218.872831,0.624725275 C229.494309,0.624725275 235.386344,5.76032967 235.386344,14.4547253 C235.386671,23.552967 229.374717,29.2549451 219.955042,29.2549451 Z M219.794932,6.77076923 C218.953213,6.77076923 218.432039,6.81131868 217.790621,6.89208791 C217.750757,7.41791209 217.750757,8.26714286 217.750757,8.71186813 L217.750757,21.2884615 C217.750757,21.7737363 217.750757,22.3803297 217.790621,22.9869231 C218.432039,23.0676923 218.913022,23.1079121 219.874987,23.1079121 C225.205658,23.1079121 227.530515,19.5494505 227.530515,14.7774725 C227.530515,9.68241758 224.604757,6.77076923 219.794932,6.77076923 Z" id="path3295" fill-rule="nonzero"></path>
                        <path d="M247.489,29.2549451 C247.6893,27.3138462 247.769355,22.1376923 247.769355,19.5092308 L247.769355,10.5721978 C247.769355,7.98395604 247.6893,2.76758242 247.489,0.826483516 C249.051866,0.826483516 254.70341,0.785934066 256.026112,0.624395604 C255.906193,1.79703297 255.866002,5.03208791 255.866002,6.60923077 L255.866002,23.4316484 C255.866002,24.9682418 255.906193,28.1225275 256.026112,29.2549451 L247.489,29.2549451 Z" id="path3297"></path>
                        <path d="M275.704895,8.55032967 C277.107651,5.19362637 278.029425,3.09098901 278.79109,0.826483516 L285.244162,0.421978022 L294.022092,20.9647253 C295.063785,23.4718681 296.587441,26.7474725 297.709515,29.2546154 L289.172077,29.578022 L287.007656,24.1589011 L277.187706,24.1589011 C276.666533,25.4934066 275.504268,28.6879121 275.26345,29.2542857 L266.926638,29.2542857 L275.704895,8.55032967 Z M278.831281,19.1452747 L285.284353,19.1452747 L282.037395,10.3697802 L278.831281,19.1452747 Z" id="path3299" fill-rule="nonzero"></path>
                    </g>
                    <polygon id="polygon3301" fill="#F5A11D" points="340 0.5 340 22.5 321 11.5003313"></polygon>
                    <polygon id="polygon3303" fill="#FEE954" points="301 0.5 301 22.5 320 11.5003313"></polygon>
                    <g id="g3305" transform="translate(321.000000, 10.500000)" fill="#F37B21">
                        <polygon id="polygon3307" points="0.0421166667 0.201164179 0.0421166667 23 18.7036 11.6005821"></polygon>
                    </g>
                    <polygon id="polygon3309" fill="#FFE504" points="320 11.5 320 33.5 301 22.5"></polygon>
                    <g id="g3311" opacity="0.79000005" transform="translate(321.000000, 10.500000)" fill="url(#linearGradient-1)">
                        <polygon id="polygon3322" points="0.0421166667 0.201164179 0.0421166667 23 18.7036 11.6005821"></polygon>
                    </g>
                    <polygon id="polygon3333" fill="url(#linearGradient-2)" opacity="0.79000005" points="320 11.5 320 33.5 301 22.5"></polygon>
                    <polygon id="polygon3335" fill="#F5A11D" points="340 0.5 340 22.5 321 11.5003315"></polygon>
                    <polygon id="polygon3358" fill="url(#linearGradient-3)" opacity="0.2" points="340 0.5 340 22.5 321 11.5008288"></polygon>
                    <polygon id="polygon3360" fill="#F9E796" points="301 0.5 301 22.5 320 11.5003315"></polygon>
                    <polygon id="polygon3375" fill="url(#linearGradient-4)" opacity="0.2" points="301 0.5 301 22.5 320 11.5003315"></polygon>
                    <g id="g3377" transform="translate(320.000000, 10.500000)" fill="#F37B21">
                        <polygon id="polygon3379" points="0.2641 0.193268657 0.2641 22.9756269 18.9122833 11.5841045"></polygon>
                    </g>
                    <polygon id="polygon3381" fill="#FFE504" points="320 11.5 320 33.5 301 22.4996685"></polygon>
                    <g id="g3383" opacity="0.2" transform="translate(320.000000, 10.500000)" fill="url(#linearGradient-5)">
                        <polygon id="polygon3394" points="0.2641 0.193268657 0.2641 22.9756269 18.9122833 11.5841045"></polygon>
                    </g>
                    <polygon id="polygon3405" fill="url(#linearGradient-6)" opacity="0.1" points="320 11.5 320 33.5 301 22.4996685"></polygon>
                </g>
            </g>
        </g>
    </g>
</svg>