<?xml version="1.0" encoding="UTF-8"?>
<svg width="367px" height="143px" viewBox="0 0 367 143" version="1.1" xmlns="http://www.w3.org/2000/svg" xmlns:xlink="http://www.w3.org/1999/xlink">
    <!-- Generator: Sketch 52.5 (67469) - http://www.bohemiancoding.com/sketch -->
    <title>Group 9</title>
    <desc>Created with Sketch.</desc>
    <g id="Page-Designs" stroke="none" stroke-width="1" fill="none" fill-rule="evenodd">
        <g id="Vox-Media" transform="translate(-736.000000, -598.000000)" fill-rule="nonzero">
            <g id="Group-9" transform="translate(736.000000, 603.000000)">
                <g id="Group-7" transform="translate(182.000000, 0.000000)" fill="#D8D8D8" stroke="#FFFFFF" stroke-width="5">
                    <path d="M25.5,13.5 L41.5,13.5 L41.5,25.5 L25.5,25.5 L25.5,40.5 L13.5,40.5 L13.5,25.5 L-2.5,25.5 L-2.5,13.5 L13.5,13.5 L13.5,-2.5 L25.5,-2.5 L25.5,13.5 Z" id="Combined-Shape"></path>
                </g>
                <g id="SVG-Layer" transform="translate(0.000000, 39.000000)" fill="#14294B">
                    <g id="chorus-logo">
                        <path d="M109.67795,74.5983333 C104.520444,74.7800758 99.5247418,72.7836098 95.91545,69.0983333 C90.6857,63.8366667 90.9059,56.8333333 90.9059,49.5 C90.9059,42.1666667 90.6857,35.1266667 95.91545,29.9016667 C99.5247418,26.2163902 104.520444,24.2199242 109.67795,24.4016667 C119.0548,24.4016667 126.63335,29.6083333 128.45,40.5166667 L116.06375,40.5166667 C115.3114,37.7483333 113.77,35.2366667 109.75135,35.2366667 C107.909159,35.1401608 106.128659,35.9141786 104.94365,37.3266667 C103.8243,38.775 103.10865,40.5166667 103.10865,49.555 C103.10865,58.5933333 103.861,60.3166667 104.94365,61.7833333 C106.13752,63.18198 107.913812,63.9473948 109.75135,63.855 C113.77,63.855 115.25635,61.3616667 116.06375,58.575 L128.45,58.575 C126.615,69.575 119.0548,74.69 109.67795,74.69 L109.67795,74.5983333 Z M164.10405,74.195 L164.10405,54.5966667 L151.1673,54.5966667 L151.1673,74.195 L139.00125,74.195 L139.00125,24.7316667 L151.1673,24.7316667 L151.1673,43.7616667 L164.10405,43.7616667 L164.10405,24.7316667 L176.2701,24.7316667 L176.2701,74.195 L164.10405,74.195 Z M220.2,69.0433333 C212.464287,76.4466613 200.263913,76.4466613 192.5282,69.0433333 C187.17,63.8366667 187.44525,56.8333333 187.44525,49.5 C187.44525,42.1666667 187.2434,35.1266667 192.4548,29.9016667 C200.190513,22.4983387 212.390887,22.4983387 220.1266,29.9016667 C225.338,35.1266667 225.13615,42.0566667 225.13615,49.5 C225.13615,56.9433333 225.338,63.8733333 220.1266,69.08 L220.2,69.0433333 Z M211.15345,37.345 C209.911335,35.970249 208.144407,35.1856154 206.2907,35.1856154 C204.436993,35.1856154 202.670065,35.970249 201.42795,37.345 C200.3086,38.7933333 199.59295,40.4616667 199.59295,49.5 C199.59295,58.5383333 200.29025,60.115 201.42795,61.5816667 C202.651262,62.9888441 204.425159,63.7969721 206.2907,63.7969721 C208.156241,63.7969721 209.930138,62.9888441 211.15345,61.5816667 C212.2728,60.115 212.98845,58.52 212.98845,49.5 C212.98845,40.48 212.29115,38.7933333 211.15345,37.345 Z M261.35905,74.195 L252.58775,55.8616667 L248.4957,55.8616667 L248.4957,74.195 L236.3113,74.195 L236.3113,24.695 L255.92745,24.695 C266.93745,24.695 272.8278,32.4683333 272.8278,40.59 C272.8669,46.096402 269.721968,51.1308633 264.7538,53.515 L275.4702,74.1583333 L261.35905,74.195 Z M255.37695,35.695 L248.4957,35.695 L248.4957,45.6866667 L255.37695,45.6866667 C257.235702,45.7992159 259.003552,44.8723946 259.966981,43.2802758 C260.93041,41.6881569 260.93041,39.6935097 259.966981,38.1013909 C259.003552,36.509272 257.235702,35.5824507 255.37695,35.695 Z M302.2979,74.5983333 C292.00355,74.5983333 283.5809,67.65 283.5809,56.815 L283.5809,24.7316667 L295.74695,24.7316667 L295.74695,56.54 C295.74695,61.1233333 298.2609,63.7633333 302.2979,63.7633333 C306.3349,63.7633333 308.95895,61.1233333 308.95895,56.54 L308.95895,24.7316667 L321.125,24.7316667 L321.125,56.8333333 C321.125,67.6683333 312.55555,74.6166667 302.27955,74.6166667 L302.2979,74.5983333 Z M347.20035,74.5983333 C339.6218,74.5983333 333.4195,73.2233333 328.4283,68.0716667 L336.2087,60.2983333 C338.7777,62.865 343.2918,63.7633333 347.2187,63.7633333 C352.0264,63.7633333 354.32015,62.1683333 354.32015,59.3266667 C354.389638,58.2653659 354.04055,57.2190523 353.3476,56.4116667 C352.438138,55.6176147 351.28756,55.1526349 350.0813,55.0916667 L344.0992,54.2483333 C340.390244,53.940556 336.890149,52.4050099 334.1535,49.885 C331.740695,47.1567432 330.512785,43.5818892 330.7404,39.9483333 C330.7404,30.91 337.5666,24.31 348.8335,24.31 C355.9166,24.31 361.2748,25.9783333 365.51365,30.2133333 L357.825,37.8583333 C354.7055,34.7233333 350.5951,34.9433333 348.44815,34.9433333 C344.2093,34.9433333 342.46605,37.3633333 342.46605,39.5266667 C342.472441,40.3893473 342.822401,41.2139766 343.4386,41.8183333 C344.378353,42.6775422 345.581074,43.1943715 346.8517,43.285 L352.81545,44.11 C356.420133,44.385505 359.8386,45.8198286 362.5593,48.1983333 C365.2017,50.7833333 366.2293,54.4683333 366.2293,59.0516667 C366.2293,69.1166667 357.5314,74.5983333 347.1086,74.5983333 L347.20035,74.5983333 Z M14.0843025,49.4550156 L10.11085,47.465 C9.36352573,47.0893391 8.67019049,46.7049312 8.027066,46.3141651 C7.17135699,47.3749475 6.7161,48.4587945 6.7161,49.5 C6.7161,50.5242738 7.15667093,51.5829359 7.98563823,52.6193911 C8.64039064,52.219942 9.34745211,51.827074 10.11085,51.4433333 L14.0843025,49.4550156 Z M21.6630881,53.2506826 L14.2004157,56.9889185 L53.01315,76.4133333 L53.01315,83.93 L10.11085,62.48 C9.35920565,62.1037353 8.66217632,61.7188903 8.01591784,61.3278037 C7.16740349,62.3813249 6.7161,63.4622529 6.7161,64.515 C6.7161,66.9166667 9.0649,69.465 13.12025,71.5 L53.01315,91.41 L53.01315,99 L10.11085,77.44 C1.3212,73.0216667 0,67.3933333 0,64.4416667 C0,62.6498466 0.486880905,59.8716369 2.83583093,56.9765157 C0.486880905,54.0962691 0,51.325208 0,49.5 C0,47.6681275 0.490442948,44.869871 2.86163603,41.9635357 C0.490442948,39.056998 0,36.2650293 0,34.4666667 C0,31.515 1.3212,25.8866667 10.11085,21.4866667 L53.01315,0 L53.01315,7.51666667 L13.12025,27.5 C9.0649,29.5166667 6.7161,32.065 6.7161,34.4666667 C6.7161,35.5120059 7.16107444,36.5851307 7.99806458,37.6331306 C8.64933444,37.2365043 9.3522791,36.8463143 10.11085,36.465 L53.01315,14.9783333 L53.01315,22.5316667 L14.1637999,41.9922602 L21.5803556,45.7039867 L53.01315,29.975 L53.01315,37.5466667 L29.1579647,49.4963148 L53.01315,61.435 L53.01315,68.9516667 L21.6630881,53.2506826 Z" id="Shape"></path>
                    </g>
                </g>
            </g>
        </g>
    </g>
</svg>