<svg xmlns="http://www.w3.org/2000/svg" width="32" height="32" viewBox="0 0 32 32">
  <path fill="#000000" fill-rule="evenodd" d="M25.6249566,10.73482 C25.6167368,9.2960054 24.4406859,8.125 23,8.125 L9,8.125 C7.55931412,8.125 6.38326317,9.2960054 6.37504335,10.73482 C6.37490137,10.7434565 6.37488709,10.7520903 6.375,10.7607185 L6.375,21.25 C6.375,22.6957492 7.55425084,23.875 9,23.875 L23,23.875 C24.4457492,23.875 25.625,22.6957492 25.625,21.25 L25.625,10.7607185 C25.6251129,10.7520903 25.6250986,10.7434565 25.6249566,10.73482 Z M23.7817448,10.359705 L16,15.8069264 L8.21825521,10.359705 C8.36296285,10.0735578 8.66053392,9.875 9,9.875 L23,9.875 C23.3394661,9.875 23.6370371,10.0735578 23.7817448,10.359705 Z M23.875,12.4305736 L23.875,21.25 C23.875,21.7292508 23.4792508,22.125 23,22.125 L9,22.125 C8.52074916,22.125 8.125,21.7292508 8.125,21.25 L8.125,12.4305736 L15.4982204,17.5918279 C15.7995006,17.802724 16.2004994,17.802724 16.5017796,17.5918279 L23.875,12.4305736 Z M16,30 C8.2680135,30 2,23.7319865 2,16 C2,8.2680135 8.2680135,2 16,2 C23.7319865,2 30,8.2680135 30,16 C30,23.7319865 23.7319865,30 16,30 Z"/>
</svg>
