<svg xmlns="http://www.w3.org/2000/svg" width="32" height="32" viewBox="0 0 32 32">
  <path fill="#000000" fill-rule="evenodd" d="M16,30 C8.2680135,30 2,23.7319865 2,16 C2,8.2680135 8.2680135,2 16,2 C23.7319865,2 30,8.2680135 30,16 C30,23.7319865 23.7319865,30 16,30 Z M26.5,10.8604142 C25.7921401,11.1763328 25.0308634,11.3895102 24.2316049,11.4851456 C25.0472752,10.9944058 25.6732712,10.2168777 25.9682551,9.28985055 C25.2050637,9.74474671 24.3602037,10.0750342 23.4603638,10.2531139 C22.7401168,9.48194574 21.7135929,9 20.5777737,9 C18.3967133,9 16.6284115,10.7766351 16.6284115,12.9679257 C16.6284115,13.2788584 16.6633063,13.5815467 16.7306732,13.8719469 C13.4483366,13.706705 10.5380417,12.127151 8.59018616,9.72633415 C8.25034306,10.3121597 8.05554969,10.9936599 8.05554969,11.7211325 C8.05554969,13.0976773 8.75274191,14.3120816 9.81244126,15.0238506 C9.16522712,15.0029647 8.55599475,14.8246888 8.02366376,14.5273397 C8.02331207,14.5438286 8.02331207,14.5605137 8.02331207,14.5775915 C8.02331207,16.4997211 9.38467738,18.1034195 11.191547,18.4682158 C10.8601052,18.5587082 10.5111574,18.6073896 10.1509167,18.6073896 C9.89618091,18.6073896 9.64890862,18.5826563 9.40773216,18.5360949 C9.91052177,20.1123904 11.3689907,21.2597008 13.0968879,21.291697 C11.7452525,22.3560135 10.0425202,22.9903241 8.19196366,22.9903241 C7.87333877,22.9903241 7.55909037,22.9713227 7.25,22.9349294 C8.99809949,24.060922 11.0738113,24.7176889 13.3040684,24.7176889 C20.5685909,24.7176889 24.5406953,18.6714213 24.5406953,13.4279648 C24.5406953,13.2562059 24.5372566,13.0846432 24.5296368,12.9146117 C25.3010341,12.3552469 25.9709123,11.6563549 26.5,10.8604142 Z"/>
</svg>
