<svg xmlns="http://www.w3.org/2000/svg" width="32" height="32" viewBox="0 0 32 32">
  <path fill="#000000" d="M120.051225,105.298227 C119.745779,105.109144 119.385636,105 119,105 L105,105 C104.594063,105 104.216372,105.120938 103.900992,105.32875 L112.003071,112.646692 L120.051225,105.298227 Z M120.799996,106.127168 L112.007138,114.155594 L103.175764,106.178941 C103.062841,106.429444 103,106.707383 103,107 L103,117 C103,118.104569 103.895431,119 105,119 L119,119 C120.104569,119 121,118.104569 121,117 L121,107 C121,106.687068 120.92813,106.390922 120.799996,106.127168 Z M112,126 C104.268014,126 98,119.731986 98,112 C98,104.268014 104.268014,98 112,98 C119.731986,98 126,104.268014 126,112 C126,119.731986 119.731986,126 112,126 Z" transform="translate(-96 -96)"/>
</svg>
